<?xml version="1.0" encoding="iso-8859-1"?>
<!-- Generator: Adobe Illustrator 19.0.0, SVG Export Plug-In . SVG Version: 6.00 Build 0)  -->
<svg version="1.1" id="Layer_1" xmlns="http://www.w3.org/2000/svg" xmlns:xlink="http://www.w3.org/1999/xlink" x="0px" y="0px"
	 viewBox="0 0 512 512" style="enable-background:new 0 0 512 512;" xml:space="preserve">
<path style="fill:#FDDD85;" d="M452.135,0H24.313C19.391,0,15.4,3.991,15.4,8.913v427.822c0,4.922,3.991,8.913,8.913,8.913h427.822
	c4.922,0,8.913-3.991,8.913-8.913V8.913C461.048,3.991,457.058,0,452.135,0z"/>
<rect x="193.656" style="fill:#FDD042;" width="89.13" height="445.648"/>
<rect x="193.656" y="53.478" style="fill:#F2C127;" width="89.13" height="106.955"/>
<g>
	<rect x="15.4" y="71.304" style="fill:#FDD042;" width="445.648" height="71.304"/>
	<path style="fill:#FDD042;" d="M42.139,436.735V8.913C42.139,3.991,46.13,0,51.052,0H24.313C19.391,0,15.4,3.991,15.4,8.913
		v427.822c0,4.922,3.991,8.913,8.913,8.913h26.739C46.13,445.648,42.139,441.657,42.139,436.735z"/>
</g>
<rect x="15.4" y="71.304" style="fill:#F2C127;" width="26.739" height="71.304"/>
<path style="fill:#FFFFFF;" d="M416.483,196.085H59.965c-4.922,0-8.913,3.991-8.913,8.913v106.955c0,4.922,3.991,8.913,8.913,8.913
	h356.518c4.922,0,8.913-3.991,8.913-8.913V204.998C425.396,200.076,421.406,196.085,416.483,196.085z"/>
<g>
	<path style="fill:#88898E;" d="M113.443,285.214c-4.922,0-8.913-3.991-8.913-8.913V240.65c0-4.922,3.991-8.913,8.913-8.913
		c4.922,0,8.913,3.991,8.913,8.913v35.652C122.356,281.224,118.366,285.214,113.443,285.214z"/>
	<path style="fill:#88898E;" d="M202.573,285.214c-4.922,0-8.913-3.991-8.913-8.913V240.65c0-4.922,3.991-8.913,8.913-8.913
		c4.922,0,8.913,3.991,8.913,8.913v35.652C211.486,281.224,207.496,285.214,202.573,285.214z"/>
	<path style="fill:#88898E;" d="M238.225,285.214c-4.922,0-8.913-3.991-8.913-8.913V240.65c0-4.922,3.991-8.913,8.913-8.913
		s8.913,3.991,8.913,8.913v35.652C247.138,281.224,243.147,285.214,238.225,285.214z"/>
	<path style="fill:#88898E;" d="M273.877,285.214c-4.922,0-8.913-3.991-8.913-8.913V240.65c0-4.922,3.991-8.913,8.913-8.913
		s8.913,3.991,8.913,8.913v35.652C282.79,281.224,278.799,285.214,273.877,285.214z"/>
	<path style="fill:#88898E;" d="M363.005,285.214c-4.922,0-8.913-3.991-8.913-8.913V240.65c0-4.922,3.991-8.913,8.913-8.913
		s8.913,3.991,8.913,8.913v35.652C371.918,281.224,367.929,285.214,363.005,285.214z"/>
</g>
<path style="fill:#4C4E55;" d="M394.332,418.647c-2.281,0-4.562-0.87-6.303-2.61l-50.419-50.419c-3.482-3.48-3.482-9.124,0-12.604
	c3.48-3.48,9.124-3.48,12.604,0l50.419,50.419c3.482,3.48,3.482,9.124,0,12.604C398.895,417.776,396.614,418.647,394.332,418.647z"
	/>
<path style="fill:#74DBC9;" d="M488.869,466.455l-75.629-75.629c-3.431-3.433-9.174-3.433-12.604,0l-25.209,25.209
	c-3.482,3.48-3.482,9.124,0,12.604l75.629,75.629c10.307,10.307,27.508,10.308,37.814,0
	C499.176,493.962,499.175,476.762,488.869,466.455z"/>
<path style="fill:#6AC8B7;" d="M459.072,491.394l-75.629-75.629c-1.462-1.462-2.302-3.307-2.536-5.211l-5.482,5.481
	c-3.482,3.48-3.482,9.124,0,12.604l75.629,75.629c10.307,10.307,27.508,10.308,37.814,0c3.343-3.344,5.584-7.417,6.758-11.739
	C485.225,501.659,468.975,501.298,459.072,491.394z"/>
<path style="fill:#74757B;" d="M238.225,106.955c-83.683,0-151.52,67.838-151.52,151.52s67.838,151.52,151.52,151.52
	s151.52-67.838,151.52-151.52S321.907,106.955,238.225,106.955z M238.225,347.605c-49.225,0-89.13-39.904-89.13-89.13
	s39.904-89.13,89.13-89.13s89.13,39.904,89.13,89.13S287.449,347.605,238.225,347.605z"/>
<path style="fill:#606268;" d="M238.225,142.607c-63.993,0-115.868,51.876-115.868,115.868s51.876,115.868,115.868,115.868
	s115.868-51.876,115.868-115.868S302.217,142.607,238.225,142.607z M238.225,347.605c-49.225,0-89.13-39.904-89.13-89.13
	s39.904-89.13,89.13-89.13s89.13,39.904,89.13,89.13C327.354,307.701,287.449,347.605,238.225,347.605z"/>
<g>
</g>
<g>
</g>
<g>
</g>
<g>
</g>
<g>
</g>
<g>
</g>
<g>
</g>
<g>
</g>
<g>
</g>
<g>
</g>
<g>
</g>
<g>
</g>
<g>
</g>
<g>
</g>
<g>
</g>
</svg>
